<svg xmlns="http://www.w3.org/2000/svg" xmlns:xlink="http://www.w3.org/1999/xlink" width="1080" zoomAndPan="magnify" viewBox="0 0 810 809.999993" height="1080" preserveAspectRatio="xMidYMid meet" version="1.0"><rect x="-81" width="972" fill="#ffffff" y="-80.999999" height="971.999992" fill-opacity="1"/><rect x="-81" width="972" fill="#ffffff" y="-80.999999" height="971.999992" fill-opacity="1"/><rect x="-81" width="972" fill="#ffffff" y="-80.999999" height="971.999992" fill-opacity="1"/><rect x="-81" width="972" fill="#ffffff" y="-80.999999" height="971.999992" fill-opacity="1"/><rect x="-81" width="972" fill="#443f7b" y="-80.999999" height="971.999992" fill-opacity="1"/><path fill="#545454" d="M -107.453125 513.109375 C -110.082031 526.253906 -106.136719 540.710938 -95.621094 550.570312 C -79.191406 567 -52.246094 567 -35.160156 550.570312 C -16.757812 532.167969 -18.730469 500.621094 -41.730469 484.851562 L 79.851562 363.269531 C 95.621094 386.269531 127.167969 388.242188 145.570312 369.839844 C 162 353.410156 162 326.464844 145.570312 309.378906 C 135.054688 298.863281 121.253906 294.917969 108.109375 297.546875 C 110.738281 284.402344 106.796875 269.945312 96.28125 259.429688 C 79.851562 243 52.90625 243 35.816406 259.429688 C 17.414062 277.832031 19.386719 309.378906 42.390625 325.148438 L -79.851562 447.390625 C -95.621094 424.386719 -127.167969 422.414062 -145.570312 440.816406 C -162 457.246094 -162 484.191406 -145.570312 501.28125 C -135.054688 511.136719 -121.253906 515.082031 -107.453125 513.109375 Z M -107.453125 513.109375 " fill-opacity="1" fill-rule="nonzero"/><path fill="#545454" d="M 702.546875 513.109375 C 699.917969 526.253906 703.863281 540.710938 714.378906 550.570312 C 730.808594 567 757.753906 567 774.839844 550.570312 C 793.242188 532.167969 791.269531 500.621094 768.269531 484.851562 L 889.851562 363.269531 C 905.621094 386.269531 937.167969 388.242188 955.570312 369.839844 C 972 353.410156 972 326.464844 955.570312 309.378906 C 945.054688 298.863281 931.253906 294.917969 918.109375 297.546875 C 920.738281 284.402344 916.796875 269.945312 906.28125 259.429688 C 889.851562 243 862.90625 243 845.816406 259.429688 C 827.414062 277.832031 829.386719 309.378906 852.390625 325.148438 L 730.148438 447.390625 C 714.378906 424.386719 682.832031 422.414062 664.429688 440.816406 C 648 457.246094 648 484.191406 664.429688 501.28125 C 674.945312 511.136719 688.746094 515.082031 702.546875 513.109375 Z M 702.546875 513.109375 " fill-opacity="1" fill-rule="nonzero"/><path fill="#545454" d="M 513.109375 512.453125 C 526.253906 515.082031 540.710938 511.136719 550.570312 500.621094 C 567 484.191406 567 457.246094 550.570312 440.160156 C 532.167969 421.757812 500.621094 423.730469 484.851562 446.730469 L 363.269531 325.148438 C 386.269531 309.378906 388.242188 277.832031 369.839844 259.429688 C 353.410156 243 326.464844 243 309.378906 259.429688 C 298.863281 269.945312 294.917969 283.746094 297.546875 296.890625 C 284.402344 294.261719 269.945312 298.203125 259.429688 308.71875 C 243 325.148438 243 352.09375 259.429688 369.183594 C 277.832031 387.585938 309.378906 385.613281 325.148438 362.609375 L 447.390625 484.851562 C 424.386719 500.621094 422.414062 532.167969 440.816406 550.570312 C 457.246094 567 484.191406 567 501.28125 550.570312 C 511.136719 540.054688 515.082031 526.253906 513.109375 512.453125 Z M 513.109375 512.453125 " fill-opacity="1" fill-rule="nonzero"/><path fill="#545454" d="M 108.109375 917.453125 C 121.253906 920.082031 135.710938 916.136719 145.570312 905.621094 C 162 889.191406 162 862.246094 145.570312 845.160156 C 127.167969 826.757812 95.621094 828.730469 79.851562 851.730469 L -41.730469 730.148438 C -18.730469 714.378906 -16.757812 682.832031 -35.160156 664.429688 C -51.589844 648 -78.535156 648 -95.621094 664.429688 C -106.136719 674.945312 -110.082031 688.746094 -107.453125 701.890625 C -120.597656 699.261719 -135.054688 703.203125 -145.570312 713.71875 C -162 730.148438 -162 757.09375 -145.570312 774.183594 C -127.167969 792.585938 -95.621094 790.613281 -79.851562 767.609375 L 42.390625 889.851562 C 19.386719 905.621094 17.414062 937.167969 35.816406 955.570312 C 52.246094 972 79.191406 972 96.28125 955.570312 C 106.136719 945.054688 110.082031 931.253906 108.109375 917.453125 Z M 108.109375 917.453125 " fill-opacity="1" fill-rule="nonzero"/><path fill="#545454" d="M 108.109375 107.453125 C 121.253906 110.082031 135.710938 106.136719 145.570312 95.621094 C 162 79.191406 162 52.246094 145.570312 35.160156 C 127.167969 16.757812 95.621094 18.730469 79.851562 41.730469 L -41.730469 -79.851562 C -18.730469 -95.621094 -16.757812 -127.167969 -35.160156 -145.570312 C -51.589844 -162 -78.535156 -162 -95.621094 -145.570312 C -106.136719 -135.054688 -110.082031 -121.253906 -107.453125 -108.109375 C -120.597656 -110.738281 -135.054688 -106.796875 -145.570312 -96.28125 C -162 -79.851562 -162 -52.90625 -145.570312 -35.816406 C -127.167969 -17.414062 -95.621094 -19.386719 -79.851562 -42.390625 L 42.390625 79.851562 C 19.386719 95.621094 17.414062 127.167969 35.816406 145.570312 C 52.246094 162 79.191406 162 96.28125 145.570312 C 106.136719 135.054688 110.082031 121.253906 108.109375 107.453125 Z M 108.109375 107.453125 " fill-opacity="1" fill-rule="nonzero"/><path fill="#545454" d="M 918.109375 917.453125 C 931.253906 920.082031 945.710938 916.136719 955.570312 905.621094 C 972 889.191406 972 862.246094 955.570312 845.160156 C 937.167969 826.757812 905.621094 828.730469 889.851562 851.730469 L 768.269531 730.148438 C 791.269531 714.378906 793.242188 682.832031 774.839844 664.429688 C 758.410156 648 731.464844 648 714.378906 664.429688 C 703.863281 674.945312 699.917969 688.746094 702.546875 701.890625 C 689.402344 699.261719 674.945312 703.203125 664.429688 713.71875 C 648 730.148438 648 757.09375 664.429688 774.183594 C 682.832031 792.585938 714.378906 790.613281 730.148438 767.609375 L 852.390625 889.851562 C 829.386719 905.621094 827.414062 937.167969 845.816406 955.570312 C 862.246094 972 889.191406 972 906.28125 955.570312 C 916.136719 945.054688 920.082031 931.253906 918.109375 917.453125 Z M 918.109375 917.453125 " fill-opacity="1" fill-rule="nonzero"/><path fill="#545454" d="M 918.109375 107.453125 C 931.253906 110.082031 945.710938 106.136719 955.570312 95.621094 C 972 79.191406 972 52.246094 955.570312 35.160156 C 937.167969 16.757812 905.621094 18.730469 889.851562 41.730469 L 768.269531 -79.851562 C 791.269531 -95.621094 793.242188 -127.167969 774.839844 -145.570312 C 758.410156 -162 731.464844 -162 714.378906 -145.570312 C 703.863281 -135.054688 699.917969 -121.253906 702.546875 -108.109375 C 689.402344 -110.738281 674.945312 -106.796875 664.429688 -96.28125 C 648 -79.851562 648 -52.90625 664.429688 -35.816406 C 682.832031 -17.414062 714.378906 -19.386719 730.148438 -42.390625 L 852.390625 79.851562 C 829.386719 95.621094 827.414062 127.167969 845.816406 145.570312 C 862.246094 162 889.191406 162 906.28125 145.570312 C 916.136719 135.054688 920.082031 121.253906 918.109375 107.453125 Z M 918.109375 107.453125 " fill-opacity="1" fill-rule="nonzero"/><path fill="#545454" d="M 297.546875 918.109375 C 294.917969 931.253906 298.863281 945.710938 309.378906 955.570312 C 325.808594 972 352.753906 972 369.839844 955.570312 C 388.242188 937.167969 386.269531 905.621094 363.269531 889.851562 L 484.851562 768.269531 C 500.621094 791.269531 532.167969 793.242188 550.570312 774.839844 C 567 758.410156 567 731.464844 550.570312 714.378906 C 540.054688 703.863281 526.253906 699.917969 513.109375 702.546875 C 515.738281 689.402344 511.796875 674.945312 501.28125 664.429688 C 484.851562 648 457.90625 648 440.816406 664.429688 C 422.414062 682.832031 424.386719 714.378906 447.390625 730.148438 L 325.148438 852.390625 C 309.378906 829.386719 277.832031 827.414062 259.429688 845.816406 C 243 862.246094 243 889.191406 259.429688 906.28125 C 269.945312 916.136719 283.746094 920.082031 297.546875 918.109375 Z M 297.546875 918.109375 " fill-opacity="1" fill-rule="nonzero"/><path fill="#545454" d="M 297.546875 108.109375 C 294.917969 121.253906 298.863281 135.710938 309.378906 145.570312 C 325.808594 162 352.753906 162 369.839844 145.570312 C 388.242188 127.167969 386.269531 95.621094 363.269531 79.851562 L 484.851562 -41.730469 C 500.621094 -18.730469 532.167969 -16.757812 550.570312 -35.160156 C 567 -51.589844 567 -78.535156 550.570312 -95.621094 C 540.054688 -106.136719 526.253906 -110.082031 513.109375 -107.453125 C 515.738281 -120.597656 511.796875 -135.054688 501.28125 -145.570312 C 484.851562 -162 457.90625 -162 440.816406 -145.570312 C 422.414062 -127.167969 424.386719 -95.621094 447.390625 -79.851562 L 325.148438 42.390625 C 309.378906 19.386719 277.832031 17.414062 259.429688 35.816406 C 243 52.246094 243 79.191406 259.429688 96.28125 C 269.945312 106.136719 283.746094 110.082031 297.546875 108.109375 Z M 297.546875 108.109375 " fill-opacity="1" fill-rule="nonzero"/></svg>