<svg xmlns="http://www.w3.org/2000/svg" xmlns:xlink="http://www.w3.org/1999/xlink" width="500" zoomAndPan="magnify" viewBox="0 0 375 374.999991" height="500" preserveAspectRatio="xMidYMid meet" version="1.0"><path fill="#ed752b" d="M 187.492188 375.03125 C 83.933594 375.03125 -0.015625 291.082031 -0.015625 187.523438 C -0.015625 83.964844 83.933594 0.015625 187.492188 0.015625 C 291.050781 0.015625 375 83.964844 375 187.523438 C 375 291.082031 291.050781 375.03125 187.492188 375.03125 Z M 187.492188 375.03125 " fill-opacity="1" fill-rule="nonzero"/><path fill="#f8f3c2" d="M 289.582031 107.398438 C 294.238281 94.628906 292.003906 79.710938 282.074219 68.710938 C 269.210938 54.460938 247.101562 52.117188 231.535156 63.347656 C 213.753906 76.179688 210.476562 101.101562 223.972656 118.054688 C 225.40625 119.855469 226.992188 121.457031 228.652344 122.925781 L 113.609375 214.527344 C 112.554688 212.574219 111.34375 210.675781 109.910156 208.875 C 96.414062 191.914062 71.390625 189.53125 54.898438 203.984375 C 40.464844 216.640625 37.792969 238.714844 48.792969 254.441406 C 57.289062 266.574219 71.332031 272.097656 84.8125 270.421875 C 80.15625 283.191406 82.394531 298.109375 92.320312 309.109375 C 105.183594 323.359375 127.292969 325.703125 142.859375 314.472656 C 160.640625 301.640625 163.917969 276.71875 150.421875 259.765625 C 149.945312 259.175781 149.433594 258.640625 148.933594 258.078125 L 263.183594 167.121094 C 263.609375 167.734375 264.015625 168.355469 264.492188 168.945312 C 277.992188 185.90625 303.011719 188.289062 319.503906 173.832031 C 333.9375 161.175781 336.609375 139.105469 325.609375 123.378906 C 317.113281 111.242188 303.070312 105.71875 289.582031 107.398438 Z M 289.582031 107.398438 " fill-opacity="1" fill-rule="nonzero"/><path fill="#a88983" d="M 151.234375 260.898438 C 163.726562 277.8125 160.257812 301.921875 142.859375 314.472656 C 127.292969 325.703125 105.175781 323.367188 92.320312 309.109375 C 86.898438 303.101562 83.785156 295.925781 82.820312 288.5625 C 86.199219 292.414062 100.609375 306.871094 124.503906 303.699219 C 152.007812 300.046875 155.347656 269.769531 155.347656 269.769531 Z M 76.324219 250.824219 C 54.039062 248.296875 44.984375 236.152344 44.984375 236.152344 L 42.425781 238.320312 C 43.253906 243.992188 45.351562 249.523438 48.792969 254.433594 C 56.574219 265.558594 69.007812 271.101562 81.414062 270.667969 C 86.660156 260.140625 90.4375 252.425781 76.324219 250.824219 Z M 271.234375 151.929688 C 267.105469 147.511719 260.292969 147.003906 255.597656 150.820312 L 149.648438 236.9375 C 145.578125 240.246094 144.269531 245.890625 146.476562 250.648438 L 149.65625 257.503906 L 263.175781 167.121094 C 263.601562 167.734375 264.007812 168.355469 264.484375 168.945312 C 277.984375 185.90625 303.003906 188.289062 319.496094 173.832031 C 323.617188 170.21875 326.75 165.820312 328.910156 161.03125 C 301.648438 177.546875 281.152344 162.554688 271.234375 151.929688 Z M 288.953125 107.894531 C 292.828125 107.199219 297.824219 107.328125 303.253906 108.171875 C 298.789062 107.105469 294.15625 106.824219 289.582031 107.398438 C 294.125 94.957031 292.09375 80.476562 282.792969 69.5625 C 281.214844 93.324219 268.0625 111.664062 288.953125 107.894531 Z M 288.953125 107.894531 " fill-opacity="1" fill-rule="nonzero"/><path fill="#ffffff" d="M 96.027344 218.550781 C 94.6875 220.488281 92.039062 220.96875 90.097656 219.628906 C 77.007812 210.558594 68.226562 220.296875 67.269531 221.4375 C 66.425781 222.441406 65.210938 222.960938 63.992188 222.960938 C 63.035156 222.960938 62.074219 222.640625 61.28125 221.988281 C 59.480469 220.496094 59.210938 217.835938 60.691406 216.019531 C 60.828125 215.84375 75.085938 198.867188 94.949219 212.621094 C 96.878906 213.960938 97.363281 216.609375 96.027344 218.550781 Z M 268.742188 73.84375 C 248.878906 60.09375 234.628906 77.070312 234.484375 77.246094 C 232.996094 79.058594 233.265625 81.71875 235.074219 83.210938 C 235.863281 83.871094 236.828125 84.183594 237.785156 84.183594 C 239.003906 84.183594 240.222656 83.664062 241.066406 82.660156 C 242.023438 81.519531 250.800781 71.789062 263.894531 80.851562 C 265.824219 82.195312 268.484375 81.710938 269.824219 79.773438 C 271.15625 77.835938 270.675781 75.183594 268.742188 73.84375 Z M 188.367188 61.308594 C 173.617188 59.96875 168.257812 66.671875 168.257812 66.671875 L 189.707031 101.539062 Z M 156.191406 97.515625 L 177.640625 106.898438 L 164.234375 88.128906 C 164.234375 88.128906 156.191406 89.472656 156.191406 97.515625 Z M 184.519531 310.75 C 199.265625 312.089844 204.628906 305.386719 204.628906 305.386719 L 183.179688 270.519531 Z M 208.652344 283.925781 C 208.652344 283.925781 216.695312 282.585938 216.695312 274.542969 L 195.246094 265.160156 Z M 208.652344 283.925781 " fill-opacity="1" fill-rule="nonzero"/><path fill="#6e4239" d="M 327.496094 118.789062 C 319.550781 108.808594 307.835938 103.09375 295.304688 102.839844 C 297.871094 90.574219 294.921875 77.871094 286.976562 67.898438 C 272.414062 49.613281 245.691406 46.578125 227.40625 61.132812 C 209.117188 75.695312 206.085938 102.417969 220.640625 120.703125 C 221.148438 121.339844 221.683594 121.96875 222.242188 122.589844 L 114.714844 208.199219 C 114.238281 207.519531 113.75 206.859375 113.234375 206.222656 C 98.671875 187.9375 71.949219 184.902344 53.664062 199.457031 C 35.378906 214.023438 32.34375 240.742188 46.90625 259.03125 C 54.851562 269.011719 66.566406 274.726562 79.097656 274.980469 C 76.53125 287.246094 79.480469 299.945312 87.425781 309.921875 C 94.480469 318.777344 104.5625 324.363281 115.808594 325.640625 C 117.433594 325.824219 119.058594 325.917969 120.675781 325.917969 C 130.21875 325.917969 139.421875 322.714844 146.996094 316.683594 C 164.753906 302.542969 168.132812 276.941406 154.980469 258.722656 L 262.453125 173.160156 C 277.261719 190.058594 302.972656 192.511719 320.730469 178.367188 C 329.585938 171.3125 335.171875 161.230469 336.449219 149.984375 C 337.730469 138.722656 334.550781 127.644531 327.496094 118.789062 Z M 327.984375 149.011719 C 326.964844 157.996094 322.507812 166.058594 315.429688 171.6875 C 300.820312 183.324219 279.460938 180.894531 267.832031 166.285156 C 267.546875 165.925781 267.296875 165.558594 267.042969 165.191406 L 266.675781 164.664062 C 266 163.707031 264.960938 163.070312 263.792969 162.902344 C 262.636719 162.738281 261.457031 163.054688 260.539062 163.78125 L 146.285156 254.746094 C 145.363281 255.476562 144.789062 256.554688 144.691406 257.71875 C 144.589844 258.890625 144.980469 260.046875 145.761719 260.921875 L 146.214844 261.417969 C 146.515625 261.75 146.8125 262.070312 147.097656 262.421875 C 158.734375 277.03125 156.304688 298.390625 141.695312 310.019531 C 134.617188 315.660156 125.769531 318.195312 116.78125 317.175781 C 107.796875 316.15625 99.738281 311.699219 94.105469 304.621094 C 86.714844 295.335938 84.746094 283.101562 88.835938 271.890625 C 89.339844 270.496094 89.089844 268.933594 88.167969 267.777344 C 87.355469 266.757812 86.125 266.167969 84.835938 266.167969 C 84.660156 266.167969 84.484375 266.175781 84.308594 266.199219 C 72.464844 267.679688 60.980469 263.011719 53.585938 253.726562 C 41.949219 239.117188 44.378906 217.761719 58.988281 206.132812 C 73.597656 194.496094 94.957031 196.921875 106.585938 211.53125 C 107.773438 213.019531 108.847656 214.664062 109.871094 216.566406 C 110.46875 217.675781 111.535156 218.457031 112.769531 218.710938 C 114 218.957031 115.289062 218.648438 116.277344 217.867188 L 231.328125 126.265625 C 232.316406 125.476562 232.90625 124.296875 232.9375 123.042969 C 232.96875 121.777344 232.4375 120.566406 231.496094 119.738281 C 229.878906 118.316406 228.515625 116.898438 227.328125 115.410156 C 215.691406 100.800781 218.121094 79.449219 232.730469 67.8125 C 239.808594 62.175781 248.65625 59.640625 257.652344 60.660156 C 266.644531 61.675781 274.695312 66.136719 280.328125 73.214844 C 287.71875 82.5 289.6875 94.734375 285.597656 105.941406 C 285.09375 107.335938 285.34375 108.898438 286.265625 110.054688 C 287.191406 111.21875 288.648438 111.816406 290.125 111.632812 C 301.96875 110.164062 313.453125 114.820312 320.835938 124.105469 C 326.460938 131.175781 329.003906 140.027344 327.984375 149.011719 Z M 327.984375 149.011719 " fill-opacity="1" fill-rule="nonzero"/></svg>